<svg xmlns="http://www.w3.org/2000/svg" xmlns:xlink="http://www.w3.org/1999/xlink" version="1.1" width="256" height="256" viewBox="0 0 256 256" xml:space="preserve">

<defs>
</defs>
<g style="stroke: none; stroke-width: 0; stroke-dasharray: none; stroke-linecap: butt; stroke-linejoin: miter; stroke-miterlimit: 10; fill: none; fill-rule: nonzero; opacity: 1;" transform="translate(1.4065934065934016 1.4065934065934016) scale(2.81 2.81)" >
	<path d="M 14.512 90 c -0.552 0 -1 -0.447 -1 -1 V 55.35 c 0 -0.553 0.448 -1 1 -1 s 1 0.447 1 1 V 89 C 15.512 89.553 15.064 90 14.512 90 z" style="stroke: none; stroke-width: 1; stroke-dasharray: none; stroke-linecap: butt; stroke-linejoin: miter; stroke-miterlimit: 10; fill: rgb(0,0,0); fill-rule: nonzero; opacity: 1;" transform=" matrix(1 0 0 1 0 0) " stroke-linecap="round" />
	<path d="M 75.488 58.645 c -0.553 0 -1 -0.447 -1 -1 V 1 c 0 -0.552 0.447 -1 1 -1 s 1 0.448 1 1 v 56.645 C 76.488 58.197 76.041 58.645 75.488 58.645 z" style="stroke: none; stroke-width: 1; stroke-dasharray: none; stroke-linecap: butt; stroke-linejoin: miter; stroke-miterlimit: 10; fill: rgb(0,0,0); fill-rule: nonzero; opacity: 1;" transform=" matrix(1 0 0 1 0 0) " stroke-linecap="round" />
	<path d="M 45 90 c -0.552 0 -1 -0.447 -1 -1 V 27.525 c 0 -0.552 0.448 -1 1 -1 s 1 0.448 1 1 V 89 C 46 89.553 45.552 90 45 90 z" style="stroke: none; stroke-width: 1; stroke-dasharray: none; stroke-linecap: butt; stroke-linejoin: miter; stroke-miterlimit: 10; fill: rgb(0,0,0); fill-rule: nonzero; opacity: 1;" transform=" matrix(1 0 0 1 0 0) " stroke-linecap="round" />
	<path d="M 45 28.525 c -5.014 0 -9.094 -4.08 -9.094 -9.094 s 4.08 -9.094 9.094 -9.094 c 5.015 0 9.094 4.08 9.094 9.094 S 50.015 28.525 45 28.525 z M 45 12.337 c -3.912 0 -7.094 3.182 -7.094 7.094 s 3.182 7.094 7.094 7.094 c 3.911 0 7.094 -3.182 7.094 -7.094 S 48.911 12.337 45 12.337 z" style="stroke: none; stroke-width: 1; stroke-dasharray: none; stroke-linecap: butt; stroke-linejoin: miter; stroke-miterlimit: 10; fill: rgb(0,0,0); fill-rule: nonzero; opacity: 1;" transform=" matrix(1 0 0 1 0 0) " stroke-linecap="round" />
	<path d="M 14.512 56.35 c -5.014 0 -9.094 -4.079 -9.094 -9.093 c 0 -5.015 4.08 -9.094 9.094 -9.094 s 9.093 4.08 9.093 9.094 C 23.605 52.271 19.526 56.35 14.512 56.35 z M 14.512 40.163 c -3.912 0 -7.094 3.183 -7.094 7.094 c 0 3.911 3.182 7.093 7.094 7.093 c 3.911 0 7.093 -3.182 7.093 -7.093 C 21.605 43.345 18.423 40.163 14.512 40.163 z" style="stroke: none; stroke-width: 1; stroke-dasharray: none; stroke-linecap: butt; stroke-linejoin: miter; stroke-miterlimit: 10; fill: rgb(0,0,0); fill-rule: nonzero; opacity: 1;" transform=" matrix(1 0 0 1 0 0) " stroke-linecap="round" />
	<path d="M 75.488 74.832 c -5.015 0 -9.094 -4.079 -9.094 -9.094 s 4.079 -9.094 9.094 -9.094 s 9.094 4.079 9.094 9.094 S 80.503 74.832 75.488 74.832 z M 75.488 58.645 c -3.911 0 -7.094 3.183 -7.094 7.094 s 3.183 7.094 7.094 7.094 s 7.094 -3.183 7.094 -7.094 S 79.399 58.645 75.488 58.645 z" style="stroke: none; stroke-width: 1; stroke-dasharray: none; stroke-linecap: butt; stroke-linejoin: miter; stroke-miterlimit: 10; fill: rgb(0,0,0); fill-rule: nonzero; opacity: 1;" transform=" matrix(1 0 0 1 0 0) " stroke-linecap="round" />
	<path d="M 14.512 40.163 c -0.552 0 -1 -0.448 -1 -1 V 1 c 0 -0.552 0.448 -1 1 -1 s 1 0.448 1 1 v 38.163 C 15.512 39.715 15.064 40.163 14.512 40.163 z" style="stroke: none; stroke-width: 1; stroke-dasharray: none; stroke-linecap: butt; stroke-linejoin: miter; stroke-miterlimit: 10; fill: rgb(0,0,0); fill-rule: nonzero; opacity: 1;" transform=" matrix(1 0 0 1 0 0) " stroke-linecap="round" />
	<path d="M 45 12.337 c -0.552 0 -1 -0.448 -1 -1 V 1 c 0 -0.552 0.448 -1 1 -1 s 1 0.448 1 1 v 10.337 C 46 11.89 45.552 12.337 45 12.337 z" style="stroke: none; stroke-width: 1; stroke-dasharray: none; stroke-linecap: butt; stroke-linejoin: miter; stroke-miterlimit: 10; fill: rgb(0,0,0); fill-rule: nonzero; opacity: 1;" transform=" matrix(1 0 0 1 0 0) " stroke-linecap="round" />
	<path d="M 75.488 90 c -0.553 0 -1 -0.447 -1 -1 V 73.832 c 0 -0.553 0.447 -1 1 -1 s 1 0.447 1 1 V 89 C 76.488 89.553 76.041 90 75.488 90 z" style="stroke: none; stroke-width: 1; stroke-dasharray: none; stroke-linecap: butt; stroke-linejoin: miter; stroke-miterlimit: 10; fill: rgb(0,0,0); fill-rule: nonzero; opacity: 1;" transform=" matrix(1 0 0 1 0 0) " stroke-linecap="round" />
</g>
</svg>